<svg width="1443" height="304" viewBox="0 0 1443 304" fill="none" xmlns="http://www.w3.org/2000/svg">
<g clip-path="url(#clip0_215_45)">
<path fill-rule="evenodd" clip-rule="evenodd" d="M3 81.6276C124.376 63.6304 235.199 62.5509 332.875 83.8535C442.614 107.794 538.527 151.375 628.751 195.041C734.057 243.338 826.227 300.398 923.137 303.648C1029.26 307.213 1129.24 234.439 1234.26 183.526C1327.39 138.374 1396.07 142.126 1443 165.732V163.541C1396.18 140.447 1327.88 137.171 1235.34 182.298C1129.93 233.708 1029.53 307.138 922.886 303.896C825.668 300.93 732.588 245.016 627.313 196.381C535.983 154.18 440.461 110.766 330.477 88.1143C233.29 68.0892 123.233 70.4211 3 89.2707V81.6276Z" fill="#A300A6"/>
<path fill-rule="evenodd" clip-rule="evenodd" d="M1443 104.928C1328.91 74.1884 1223.07 57.2794 1125.64 60.8444C991.214 65.7874 871.716 103.274 761.017 142.139C636.799 185.753 521.567 242.612 412.164 224.529C275.192 201.882 162.963 85.1914 42.5557 23.9877C19.3918 12.2095 -2.49095 4.47238 -23 0V1.25677C-3.76467 5.35244 16.9988 11.5457 39.4479 20.1192C152.429 92.697 274.798 201.898 413.5 225.355C523.857 244.017 640.455 186.999 766.543 145.527C877.183 109.135 997.568 75.3622 1132.34 74.3162C1228.19 73.5639 1331.7 92.3706 1443 124.185V104.928Z" fill="white"/>
<path fill-rule="evenodd" clip-rule="evenodd" d="M1441 31.54C1358.51 12.009 1282.98 8.70896 1216.08 27.5C1140.09 48.835 1073.74 91.364 1010.63 132.965C937.052 181.476 871.935 238.608 803.879 241.198C728.924 244.057 658.49 167.936 584.326 115.381C522.762 71.758 32.132 243.906 0 265.5L389 115.381C421.026 95.48 521.916 68.534 582.115 111.909C657.095 165.94 728.218 243.926 804.182 241.913C872.781 240.109 938.612 183.599 1013.38 137.213C1076.87 97.822 1144.04 58.441 1220.59 40.902C1286.62 25.776 1360.51 32.117 1441 53.706V31.54Z" fill="#46006F"/>
</g>
<defs>
<clipPath id="clip0_215_45">
<rect width="1443" height="304" fill="white"/>
</clipPath>
</defs>
</svg>
