<svg width="1440" height="229" viewBox="0 0 1440 229" fill="none" xmlns="http://www.w3.org/2000/svg">
<path fill-rule="evenodd" clip-rule="evenodd" d="M1440 104.928C1325.91 74.1884 1220.07 57.2794 1122.64 60.8444C988.214 65.7874 868.716 103.274 758.017 142.139C633.799 185.753 518.567 242.612 409.164 224.529C272.192 201.882 159.963 85.1914 39.5557 23.9877C16.3918 12.2095 -5.49095 4.47238 -26 0V1.25677C-6.76467 5.35244 13.9988 11.5457 36.4479 20.1192C149.429 92.697 271.798 201.898 410.5 225.355C520.857 244.017 637.455 186.999 763.543 145.527C874.183 109.135 994.568 75.3622 1129.34 74.3162C1225.19 73.5639 1328.7 92.3706 1440 124.185L1440 104.928Z" fill="white"/>
</svg>
