<svg width="1440" height="236" viewBox="0 0 1440 236" fill="none" xmlns="http://www.w3.org/2000/svg">
<path fill-rule="evenodd" clip-rule="evenodd" d="M0 13.6276C121.376 -4.36963 232.199 -5.44906 329.875 15.8535C439.614 39.7942 535.527 83.3747 625.751 127.041C731.057 175.338 823.227 232.398 920.137 235.648C1026.26 239.213 1126.24 166.439 1231.26 115.526C1324.39 70.3735 1393.07 74.126 1440 97.7315V95.5407C1393.18 72.4474 1324.88 69.171 1232.34 114.298C1126.93 165.708 1026.53 239.138 919.886 235.896C822.668 232.93 729.588 177.016 624.313 128.381C532.983 86.1799 437.461 42.7664 327.477 20.1143C230.29 0.0891778 120.233 2.42109 0 21.2707V13.6276Z" fill="#A300A6"/>
</svg>
