<svg width="1441" height="251" viewBox="0 0 1441 251" fill="none" xmlns="http://www.w3.org/2000/svg">
<path fill-rule="evenodd" clip-rule="evenodd" d="M1441 16.54C1358.51 -2.99101 1282.98 -6.29103 1216.08 12.5C1140.09 33.835 1073.74 76.364 1010.63 117.965C937.052 166.476 871.935 223.608 803.879 226.198C728.924 229.057 658.49 152.936 584.326 100.381C522.762 56.758 32.132 228.906 0 250.5L389 100.381C421.026 80.48 521.916 53.534 582.115 96.909C657.095 150.94 728.218 228.926 804.182 226.913C872.781 225.109 938.612 168.599 1013.38 122.213C1076.87 82.822 1144.04 43.441 1220.59 25.902C1286.62 10.776 1360.51 17.117 1441 38.706L1441 16.54Z" fill="#46006F"/>
</svg>
